<?xml version="1.0" encoding="utf-8" standalone="no"?>
<!DOCTYPE svg PUBLIC "-//W3C//DTD SVG 1.1//EN"
  "http://www.w3.org/Graphics/SVG/1.1/DTD/svg11.dtd">
<!-- Created with matplotlib (https://matplotlib.org/) -->
<svg height="720pt" version="1.1" viewBox="0 0 1440 720" width="1440pt" xmlns="http://www.w3.org/2000/svg" xmlns:xlink="http://www.w3.org/1999/xlink">
 <defs>
  <style type="text/css">
*{stroke-linecap:butt;stroke-linejoin:round;}
  </style>
 </defs>
 <g id="figure_1">
  <g id="patch_1">
   <path d="M 0 720 
L 1440 720 
L 1440 0 
L 0 0 
z
" style="fill:#ffffff;"/>
  </g>
  <g id="axes_1">
   <g id="patch_2">
    <path d="M 104.4 303.026087 
L 666.158242 303.026087 
L 666.158242 25.2 
L 104.4 25.2 
z
" style="fill:#ffffff;"/>
   </g>
   <g id="matplotlib.axis_1">
    <g id="xtick_1">
     <g id="line2d_1">
      <path clip-path="url(#p868e7e4a50)" d="M 104.4 303.026087 
L 104.4 25.2 
" style="fill:none;stroke:#b0b0b0;stroke-linecap:square;stroke-width:0.8;"/>
     </g>
     <g id="line2d_2">
      <defs>
       <path d="M 0 0 
L 0 3.5 
" id="m15a8d90342" style="stroke:#000000;stroke-width:0.8;"/>
      </defs>
      <g>
       <use style="stroke:#000000;stroke-width:0.8;" x="104.4" xlink:href="#m15a8d90342" y="303.026087"/>
      </g>
     </g>
     <g id="text_1">
      <!-- $0.00$ -->
      <defs>
       <path d="M 42 31.640625 
C 42 37.75 41.90625 48.125 37.703125 56.109375 
C 34 63.109375 28.09375 65.59375 22.90625 65.59375 
C 18.09375 65.59375 12 63.40625 8.203125 56.203125 
C 4.203125 48.71875 3.796875 39.4375 3.796875 31.640625 
C 3.796875 25.953125 3.90625 17.28125 7 9.671875 
C 11.296875 -0.609375 19 -2 22.90625 -2 
C 27.5 -2 34.5 -0.109375 38.59375 9.375 
C 41.59375 16.28125 42 24.359375 42 31.640625 
z
M 22.90625 -0.40625 
C 16.5 -0.40625 12.703125 5.078125 11.296875 12.6875 
C 10.203125 18.5625 10.203125 27.15625 10.203125 32.75 
C 10.203125 40.4375 10.203125 46.828125 11.5 52.921875 
C 13.40625 61.390625 19 64 22.90625 64 
C 27 64 32.296875 61.296875 34.203125 53.125 
C 35.5 47.4375 35.59375 40.734375 35.59375 32.75 
C 35.59375 26.25 35.59375 18.265625 34.40625 12.375 
C 32.296875 1.484375 26.40625 -0.40625 22.90625 -0.40625 
z
" id="CMR17-48"/>
       <path d="M 18.40625 4.796875 
C 18.40625 7.6875 16 9.671875 13.59375 9.671875 
C 10.703125 9.671875 8.703125 7.28125 8.703125 4.890625 
C 8.703125 2 11.09375 0 13.5 0 
C 16.40625 0 18.40625 2.390625 18.40625 4.796875 
z
" id="CMMI12-58"/>
      </defs>
      <g transform="translate(86.341453 325.24678)scale(0.22 -0.22)">
       <use transform="scale(0.996264)" xlink:href="#CMR17-48"/>
       <use transform="translate(45.690477 0)scale(0.996264)" xlink:href="#CMMI12-58"/>
       <use transform="translate(72.787654 0)scale(0.996264)" xlink:href="#CMR17-48"/>
       <use transform="translate(118.478131 0)scale(0.996264)" xlink:href="#CMR17-48"/>
      </g>
     </g>
    </g>
    <g id="xtick_2">
     <g id="line2d_3">
      <path clip-path="url(#p868e7e4a50)" d="M 187.649689 303.026087 
L 187.649689 25.2 
" style="fill:none;stroke:#b0b0b0;stroke-linecap:square;stroke-width:0.8;"/>
     </g>
     <g id="line2d_4">
      <g>
       <use style="stroke:#000000;stroke-width:0.8;" x="187.649689" xlink:href="#m15a8d90342" y="303.026087"/>
      </g>
     </g>
     <g id="text_2">
      <!-- $0.02$ -->
      <defs>
       <path d="M 41.703125 15.453125 
L 39.90625 15.453125 
C 38.90625 8.375 38.09375 7.171875 37.703125 6.5625 
C 37.203125 5.765625 30 5.765625 28.59375 5.765625 
L 9.40625 5.765625 
C 13 9.671875 20 16.75 28.5 24.953125 
C 34.59375 30.734375 41.703125 37.53125 41.703125 47.421875 
C 41.703125 59.21875 32.296875 66 21.796875 66 
C 10.796875 66 4.09375 56.3125 4.09375 47.34375 
C 4.09375 43.4375 7 42.9375 8.203125 42.9375 
C 9.203125 42.9375 12.203125 43.546875 12.203125 47.03125 
C 12.203125 50.109375 9.59375 51 8.203125 51 
C 7.59375 51 7 50.90625 6.59375 50.703125 
C 8.5 59.21875 14.296875 63.40625 20.40625 63.40625 
C 29.09375 63.40625 34.796875 56.515625 34.796875 47.421875 
C 34.796875 38.734375 29.703125 31.25 24 24.75 
L 4.09375 2.28125 
L 4.09375 0 
L 39.296875 0 
z
" id="CMR17-50"/>
      </defs>
      <g transform="translate(169.591142 325.24678)scale(0.22 -0.22)">
       <use transform="scale(0.996264)" xlink:href="#CMR17-48"/>
       <use transform="translate(45.690477 0)scale(0.996264)" xlink:href="#CMMI12-58"/>
       <use transform="translate(72.787654 0)scale(0.996264)" xlink:href="#CMR17-48"/>
       <use transform="translate(118.478131 0)scale(0.996264)" xlink:href="#CMR17-50"/>
      </g>
     </g>
    </g>
    <g id="xtick_3">
     <g id="line2d_5">
      <path clip-path="url(#p868e7e4a50)" d="M 270.899378 303.026087 
L 270.899378 25.2 
" style="fill:none;stroke:#b0b0b0;stroke-linecap:square;stroke-width:0.8;"/>
     </g>
     <g id="line2d_6">
      <g>
       <use style="stroke:#000000;stroke-width:0.8;" x="270.899378" xlink:href="#m15a8d90342" y="303.026087"/>
      </g>
     </g>
     <g id="text_3">
      <!-- $0.04$ -->
      <defs>
       <path d="M 33.59375 64.40625 
C 33.59375 66.5 33.5 66.5 31.703125 66.5 
L 2 19.59375 
L 2 17 
L 27.796875 17 
L 27.796875 7.140625 
C 27.796875 3.5 27.59375 2.5 20.59375 2.5 
L 18.703125 2.5 
L 18.703125 0 
C 21.90625 0 27.296875 0 30.703125 0 
C 34.09375 0 39.5 0 42.703125 0 
L 42.703125 2.5 
L 40.796875 2.5 
C 33.796875 2.5 33.59375 3.5 33.59375 7.140625 
L 33.59375 17 
L 43.796875 17 
L 43.796875 19.59375 
L 33.59375 19.59375 
z
M 28.09375 57.859375 
L 28.09375 19.59375 
L 4 19.59375 
z
" id="CMR17-52"/>
      </defs>
      <g transform="translate(252.840831 325.24678)scale(0.22 -0.22)">
       <use transform="scale(0.996264)" xlink:href="#CMR17-48"/>
       <use transform="translate(45.690477 0)scale(0.996264)" xlink:href="#CMMI12-58"/>
       <use transform="translate(72.787654 0)scale(0.996264)" xlink:href="#CMR17-48"/>
       <use transform="translate(118.478131 0)scale(0.996264)" xlink:href="#CMR17-52"/>
      </g>
     </g>
    </g>
    <g id="xtick_4">
     <g id="line2d_7">
      <path clip-path="url(#p868e7e4a50)" d="M 354.149067 303.026087 
L 354.149067 25.2 
" style="fill:none;stroke:#b0b0b0;stroke-linecap:square;stroke-width:0.8;"/>
     </g>
     <g id="line2d_8">
      <g>
       <use style="stroke:#000000;stroke-width:0.8;" x="354.149067" xlink:href="#m15a8d90342" y="303.026087"/>
      </g>
     </g>
     <g id="text_4">
      <!-- $0.06$ -->
      <defs>
       <path d="M 10.59375 34 
C 10.59375 57.65625 21.796875 63 28.296875 63 
C 30.40625 63 35.5 62.640625 37.5 59 
C 35.90625 59 32.90625 59 32.90625 55.515625 
C 32.90625 52.828125 35.09375 51.921875 36.5 51.921875 
C 37.40625 51.921875 40.09375 52.3125 40.09375 55.625 
C 40.09375 61.78125 35.09375 65.296875 28.203125 65.296875 
C 16.296875 65.296875 3.796875 52.96875 3.796875 31 
C 3.796875 3.953125 15.09375 -2 23.09375 -2 
C 32.796875 -2 42 6.671875 42 20.046875 
C 42 32.515625 33.90625 41.59375 23.703125 41.59375 
C 17.59375 41.59375 13.09375 37.609375 10.59375 30.625 
z
M 23.09375 0.390625 
C 10.796875 0.390625 10.796875 18.75 10.796875 22.4375 
C 10.796875 29.625 14.203125 40 23.5 40 
C 25.203125 40 30.09375 40 33.40625 33.125 
C 35.203125 29.21875 35.203125 25.140625 35.203125 20.140625 
C 35.203125 14.75 35.203125 10.78125 33.09375 6.78125 
C 30.90625 2.671875 27.703125 0.390625 23.09375 0.390625 
z
" id="CMR17-54"/>
      </defs>
      <g transform="translate(336.09052 325.24678)scale(0.22 -0.22)">
       <use transform="scale(0.996264)" xlink:href="#CMR17-48"/>
       <use transform="translate(45.690477 0)scale(0.996264)" xlink:href="#CMMI12-58"/>
       <use transform="translate(72.787654 0)scale(0.996264)" xlink:href="#CMR17-48"/>
       <use transform="translate(118.478131 0)scale(0.996264)" xlink:href="#CMR17-54"/>
      </g>
     </g>
    </g>
    <g id="xtick_5">
     <g id="line2d_9">
      <path clip-path="url(#p868e7e4a50)" d="M 437.398756 303.026087 
L 437.398756 25.2 
" style="fill:none;stroke:#b0b0b0;stroke-linecap:square;stroke-width:0.8;"/>
     </g>
     <g id="line2d_10">
      <g>
       <use style="stroke:#000000;stroke-width:0.8;" x="437.398756" xlink:href="#m15a8d90342" y="303.026087"/>
      </g>
     </g>
     <g id="text_5">
      <!-- $0.08$ -->
      <defs>
       <path d="M 27.203125 35.375 
C 33.5 38.546875 39.90625 43.328125 39.90625 50.984375 
C 39.90625 60.015625 31.09375 65.296875 23 65.296875 
C 13.90625 65.296875 5.90625 58.734375 5.90625 49.6875 
C 5.90625 47.203125 6.5 42.921875 10.40625 39.140625 
C 11.40625 38.15625 15.59375 35.171875 18.296875 33.28125 
C 13.796875 30.984375 3.296875 25.53125 3.296875 14.59375 
C 3.296875 4.359375 13.09375 -2 22.796875 -2 
C 33.5 -2 42.5 5.65625 42.5 15.78125 
C 42.5 24.84375 36.40625 29.015625 32.40625 31.703125 
z
M 14.09375 44.09375 
C 13.296875 44.59375 9.296875 47.671875 9.296875 52.359375 
C 9.296875 58.421875 15.59375 63 22.796875 63 
C 30.703125 63 36.5 57.4375 36.5 50.96875 
C 36.5 41.703125 26.09375 36.421875 25.59375 36.421875 
C 25.5 36.421875 25.40625 36.421875 24.59375 37.03125 
z
M 32.5 23.734375 
C 34 22.640625 38.796875 19.375 38.796875 13.296875 
C 38.796875 5.953125 31.40625 0.390625 23 0.390625 
C 13.90625 0.390625 7 6.84375 7 14.6875 
C 7 22.546875 13.09375 29.09375 20 32.1875 
z
" id="CMR17-56"/>
      </defs>
      <g transform="translate(419.340209 325.24678)scale(0.22 -0.22)">
       <use transform="scale(0.996264)" xlink:href="#CMR17-48"/>
       <use transform="translate(45.690477 0)scale(0.996264)" xlink:href="#CMMI12-58"/>
       <use transform="translate(72.787654 0)scale(0.996264)" xlink:href="#CMR17-48"/>
       <use transform="translate(118.478131 0)scale(0.996264)" xlink:href="#CMR17-56"/>
      </g>
     </g>
    </g>
    <g id="xtick_6">
     <g id="line2d_11">
      <path clip-path="url(#p868e7e4a50)" d="M 520.648445 303.026087 
L 520.648445 25.2 
" style="fill:none;stroke:#b0b0b0;stroke-linecap:square;stroke-width:0.8;"/>
     </g>
     <g id="line2d_12">
      <g>
       <use style="stroke:#000000;stroke-width:0.8;" x="520.648445" xlink:href="#m15a8d90342" y="303.026087"/>
      </g>
     </g>
     <g id="text_6">
      <!-- $0.10$ -->
      <defs>
       <path d="M 26.59375 63.40625 
C 26.59375 65.5 26.5 65.5 25.09375 65.5 
C 21.203125 61.1875 15.296875 59.796875 9.703125 59.796875 
C 9.40625 59.796875 8.90625 59.796875 8.796875 59.5 
C 8.703125 59.296875 8.703125 59.09375 8.703125 57 
C 11.796875 57 17 57.59375 21 59.984375 
L 21 7.203125 
C 21 3.6875 20.796875 2.5 12.203125 2.5 
L 9.203125 2.5 
L 9.203125 0 
C 14 0 19 0 23.796875 0 
C 28.59375 0 33.59375 0 38.40625 0 
L 38.40625 2.5 
L 35.40625 2.5 
C 26.796875 2.5 26.59375 3.59375 26.59375 7.15625 
z
" id="CMR17-49"/>
      </defs>
      <g transform="translate(502.589898 325.24678)scale(0.22 -0.22)">
       <use transform="scale(0.996264)" xlink:href="#CMR17-48"/>
       <use transform="translate(45.690477 0)scale(0.996264)" xlink:href="#CMMI12-58"/>
       <use transform="translate(72.787654 0)scale(0.996264)" xlink:href="#CMR17-49"/>
       <use transform="translate(118.478131 0)scale(0.996264)" xlink:href="#CMR17-48"/>
      </g>
     </g>
    </g>
    <g id="xtick_7">
     <g id="line2d_13">
      <path clip-path="url(#p868e7e4a50)" d="M 603.898134 303.026087 
L 603.898134 25.2 
" style="fill:none;stroke:#b0b0b0;stroke-linecap:square;stroke-width:0.8;"/>
     </g>
     <g id="line2d_14">
      <g>
       <use style="stroke:#000000;stroke-width:0.8;" x="603.898134" xlink:href="#m15a8d90342" y="303.026087"/>
      </g>
     </g>
     <g id="text_7">
      <!-- $0.12$ -->
      <g transform="translate(585.839587 325.24678)scale(0.22 -0.22)">
       <use transform="scale(0.996264)" xlink:href="#CMR17-48"/>
       <use transform="translate(45.690477 0)scale(0.996264)" xlink:href="#CMMI12-58"/>
       <use transform="translate(72.787654 0)scale(0.996264)" xlink:href="#CMR17-49"/>
       <use transform="translate(118.478131 0)scale(0.996264)" xlink:href="#CMR17-50"/>
      </g>
     </g>
    </g>
    <g id="text_8">
     <!-- M[a.u.] -->
     <defs>
      <path d="M 49.90625 37.046875 
L 45.09375 23.015625 
C 44.296875 20.421875 41.59375 12.359375 41 9.171875 
L 40.90625 9.171875 
C 40.59375 11.171875 40 13.265625 38.40625 18.34375 
C 37.5 21.328125 36.5 24.40625 35.5 27.203125 
L 20.703125 69 
L 9 69 
L 9 0 
L 16.796875 0 
L 16.796875 60.9375 
L 16.90625 60.9375 
C 16.90625 60.84375 17.796875 56.453125 23.90625 39.046875 
L 37.09375 1.5 
L 44.5 1.5 
L 56.40625 34.859375 
C 57.203125 37.15625 59.703125 44.421875 60.796875 47.90625 
C 61.796875 50.890625 64.296875 58.25 64.90625 61.140625 
L 65 61.140625 
L 65 0 
L 72.90625 0 
L 72.90625 69 
L 61.296875 69 
z
" id="CMSS17-77"/>
      <path d="M 25.203125 -25 
L 25.203125 -18.9375 
L 16.59375 -18.9375 
L 16.59375 68 
L 25.203125 68 
L 25.203125 74.078125 
L 9.296875 74.078125 
L 9.296875 -25 
z
" id="CMSS17-91"/>
      <path d="M 37.59375 27.984375 
C 37.59375 37.375 30.90625 43.875 21.90625 43.875 
C 17.5 43.875 12.703125 43.078125 7.203125 39.890625 
L 7.796875 33.359375 
C 10.296875 35.125 14.59375 38 21.796875 38 
C 26.90625 38 30 34.0625 30 27.84375 
L 30 24 
C 14 24 4 19.34375 4 11.34375 
C 4 7.203125 6.5 -1 14.796875 -1 
C 16.296875 -1 24.40625 -1 30.203125 3.390625 
L 30.203125 -0.296875 
L 37.59375 -0.296875 
z
M 30 12.75 
C 30 10.953125 30 8.5625 27 6.78125 
C 24.40625 5.078125 21.09375 5.078125 19.703125 5.078125 
C 14.703125 5.078125 11.296875 7.984375 11.296875 11.625 
C 11.296875 18.921875 26.90625 18.921875 30 18.921875 
z
" id="CMSS17-97"/>
      <path d="M 17 7.96875 
L 9 7.96875 
L 9 0 
L 17 0 
z
" id="CMSS17-46"/>
      <path d="M 40.90625 42.796875 
L 33.296875 42.796875 
L 33.296875 15.1875 
C 33.296875 7.78125 27.90625 4.78125 22.203125 4.78125 
C 15.59375 4.78125 15 6.984375 15 11.078125 
L 15 42.796875 
L 7.40625 42.796875 
L 7.40625 10.59375 
C 7.40625 2.796875 10.09375 -1 17 -1 
C 20.40625 -1 28.09375 -0.203125 33.5 4.78125 
L 33.5 0 
L 40.90625 0 
z
" id="CMSS17-117"/>
      <path d="M 17.90625 74.078125 
L 2 74.078125 
L 2 68 
L 10.59375 68 
L 10.59375 -18.9375 
L 2 -18.9375 
L 2 -25 
L 17.90625 -25 
z
" id="CMSS17-93"/>
     </defs>
     <g transform="translate(354.344695 349.928592)scale(0.22 -0.22)">
      <use transform="scale(0.996264)" xlink:href="#CMSS17-77"/>
      <use transform="translate(81.67603 0)scale(0.996264)" xlink:href="#CMSS17-91"/>
      <use transform="translate(108.861469 0)scale(0.996264)" xlink:href="#CMSS17-97"/>
      <use transform="translate(153.783389 0)scale(0.996264)" xlink:href="#CMSS17-46"/>
      <use transform="translate(179.807594 0)scale(0.996264)" xlink:href="#CMSS17-117"/>
      <use transform="translate(228.012537 0)scale(0.996264)" xlink:href="#CMSS17-46"/>
      <use transform="translate(254.036742 0)scale(0.996264)" xlink:href="#CMSS17-93"/>
     </g>
    </g>
   </g>
   <g id="matplotlib.axis_2">
    <g id="ytick_1">
     <g id="line2d_15">
      <path clip-path="url(#p868e7e4a50)" d="M 104.4 303.026087 
L 666.158242 303.026087 
" style="fill:none;stroke:#b0b0b0;stroke-linecap:square;stroke-width:0.8;"/>
     </g>
     <g id="line2d_16">
      <defs>
       <path d="M 0 0 
L -3.5 0 
" id="m8f284e0244" style="stroke:#000000;stroke-width:0.8;"/>
      </defs>
      <g>
       <use style="stroke:#000000;stroke-width:0.8;" x="104.4" xlink:href="#m8f284e0244" y="303.026087"/>
      </g>
     </g>
     <g id="text_9">
      <!-- $0.00$ -->
      <g transform="translate(61.282906 310.636434)scale(0.22 -0.22)">
       <use transform="scale(0.996264)" xlink:href="#CMR17-48"/>
       <use transform="translate(45.690477 0)scale(0.996264)" xlink:href="#CMMI12-58"/>
       <use transform="translate(72.787654 0)scale(0.996264)" xlink:href="#CMR17-48"/>
       <use transform="translate(118.478131 0)scale(0.996264)" xlink:href="#CMR17-48"/>
      </g>
     </g>
    </g>
    <g id="ytick_2">
     <g id="line2d_17">
      <path clip-path="url(#p868e7e4a50)" d="M 104.4 248.386968 
L 666.158242 248.386968 
" style="fill:none;stroke:#b0b0b0;stroke-linecap:square;stroke-width:0.8;"/>
     </g>
     <g id="line2d_18">
      <g>
       <use style="stroke:#000000;stroke-width:0.8;" x="104.4" xlink:href="#m8f284e0244" y="248.386968"/>
      </g>
     </g>
     <g id="text_10">
      <!-- $0.05$ -->
      <defs>
       <path d="M 11.40625 57.6875 
C 12.40625 57.28125 16.5 56 20.703125 56 
C 30 56 35.09375 61.109375 38 64.0625 
C 38 64.953125 38 65.5 37.40625 65.5 
C 37.296875 65.5 37.09375 65.5 36.296875 65.046875 
C 32.796875 63.40625 28.703125 62.078125 23.703125 62.078125 
C 20.703125 62.078125 16.203125 62.484375 11.296875 64.671875 
C 10.203125 65.171875 10 65.171875 9.90625 65.171875 
C 9.40625 65.171875 9.296875 65.0625 9.296875 63.078125 
L 9.296875 34.421875 
C 9.296875 32.640625 9.296875 32.140625 10.296875 32.140625 
C 10.796875 32.140625 11 32.34375 11.5 33.03125 
C 14.703125 37.515625 19.09375 39.40625 24.09375 39.40625 
C 27.59375 39.40625 35.09375 37.21875 35.09375 20.140625 
C 35.09375 16.953125 35.09375 11.171875 32.09375 6.578125 
C 29.59375 2.484375 25.703125 0.390625 21.40625 0.390625 
C 14.796875 0.390625 8.09375 5 6.296875 12.71875 
C 6.703125 12.609375 7.5 12.421875 7.90625 12.421875 
C 9.203125 12.421875 11.703125 13.125 11.703125 16.21875 
C 11.703125 18.90625 9.796875 20 7.90625 20 
C 5.59375 20 4.09375 18.59375 4.09375 15.796875 
C 4.09375 7.09375 11 -2 21.59375 -2 
C 31.90625 -2 41.703125 6.875 41.703125 19.75 
C 41.703125 31.71875 33.90625 41 24.203125 41 
C 19.09375 41 14.796875 39.109375 11.40625 35.53125 
z
" id="CMR17-53"/>
      </defs>
      <g transform="translate(61.282906 255.997315)scale(0.22 -0.22)">
       <use transform="scale(0.996264)" xlink:href="#CMR17-48"/>
       <use transform="translate(45.690477 0)scale(0.996264)" xlink:href="#CMMI12-58"/>
       <use transform="translate(72.787654 0)scale(0.996264)" xlink:href="#CMR17-48"/>
       <use transform="translate(118.478131 0)scale(0.996264)" xlink:href="#CMR17-53"/>
      </g>
     </g>
    </g>
    <g id="ytick_3">
     <g id="line2d_19">
      <path clip-path="url(#p868e7e4a50)" d="M 104.4 193.74785 
L 666.158242 193.74785 
" style="fill:none;stroke:#b0b0b0;stroke-linecap:square;stroke-width:0.8;"/>
     </g>
     <g id="line2d_20">
      <g>
       <use style="stroke:#000000;stroke-width:0.8;" x="104.4" xlink:href="#m8f284e0244" y="193.74785"/>
      </g>
     </g>
     <g id="text_11">
      <!-- $0.10$ -->
      <g transform="translate(61.282906 201.358196)scale(0.22 -0.22)">
       <use transform="scale(0.996264)" xlink:href="#CMR17-48"/>
       <use transform="translate(45.690477 0)scale(0.996264)" xlink:href="#CMMI12-58"/>
       <use transform="translate(72.787654 0)scale(0.996264)" xlink:href="#CMR17-49"/>
       <use transform="translate(118.478131 0)scale(0.996264)" xlink:href="#CMR17-48"/>
      </g>
     </g>
    </g>
    <g id="ytick_4">
     <g id="line2d_21">
      <path clip-path="url(#p868e7e4a50)" d="M 104.4 139.108731 
L 666.158242 139.108731 
" style="fill:none;stroke:#b0b0b0;stroke-linecap:square;stroke-width:0.8;"/>
     </g>
     <g id="line2d_22">
      <g>
       <use style="stroke:#000000;stroke-width:0.8;" x="104.4" xlink:href="#m8f284e0244" y="139.108731"/>
      </g>
     </g>
     <g id="text_12">
      <!-- $0.15$ -->
      <g transform="translate(61.282906 146.719078)scale(0.22 -0.22)">
       <use transform="scale(0.996264)" xlink:href="#CMR17-48"/>
       <use transform="translate(45.690477 0)scale(0.996264)" xlink:href="#CMMI12-58"/>
       <use transform="translate(72.787654 0)scale(0.996264)" xlink:href="#CMR17-49"/>
       <use transform="translate(118.478131 0)scale(0.996264)" xlink:href="#CMR17-53"/>
      </g>
     </g>
    </g>
    <g id="ytick_5">
     <g id="line2d_23">
      <path clip-path="url(#p868e7e4a50)" d="M 104.4 84.469612 
L 666.158242 84.469612 
" style="fill:none;stroke:#b0b0b0;stroke-linecap:square;stroke-width:0.8;"/>
     </g>
     <g id="line2d_24">
      <g>
       <use style="stroke:#000000;stroke-width:0.8;" x="104.4" xlink:href="#m8f284e0244" y="84.469612"/>
      </g>
     </g>
     <g id="text_13">
      <!-- $0.20$ -->
      <g transform="translate(61.282906 92.079959)scale(0.22 -0.22)">
       <use transform="scale(0.996264)" xlink:href="#CMR17-48"/>
       <use transform="translate(45.690477 0)scale(0.996264)" xlink:href="#CMMI12-58"/>
       <use transform="translate(72.787654 0)scale(0.996264)" xlink:href="#CMR17-50"/>
       <use transform="translate(118.478131 0)scale(0.996264)" xlink:href="#CMR17-48"/>
      </g>
     </g>
    </g>
    <g id="ytick_6">
     <g id="line2d_25">
      <path clip-path="url(#p868e7e4a50)" d="M 104.4 29.830494 
L 666.158242 29.830494 
" style="fill:none;stroke:#b0b0b0;stroke-linecap:square;stroke-width:0.8;"/>
     </g>
     <g id="line2d_26">
      <g>
       <use style="stroke:#000000;stroke-width:0.8;" x="104.4" xlink:href="#m8f284e0244" y="29.830494"/>
      </g>
     </g>
     <g id="text_14">
      <!-- $0.25$ -->
      <g transform="translate(61.282906 37.44084)scale(0.22 -0.22)">
       <use transform="scale(0.996264)" xlink:href="#CMR17-48"/>
       <use transform="translate(45.690477 0)scale(0.996264)" xlink:href="#CMMI12-58"/>
       <use transform="translate(72.787654 0)scale(0.996264)" xlink:href="#CMR17-50"/>
       <use transform="translate(118.478131 0)scale(0.996264)" xlink:href="#CMR17-53"/>
      </g>
     </g>
    </g>
    <g id="text_15">
     <!-- P[a.u.] -->
     <defs>
      <path d="M 32.90625 29 
C 44.90625 29 54.703125 38.328125 54.703125 49.34375 
C 54.703125 60.15625 45.296875 69.578125 32.296875 69.578125 
L 8.90625 69.578125 
L 8.90625 0 
L 17.296875 0 
L 17.296875 29 
z
M 30.09375 64 
C 41.703125 64 46.796875 56.671875 46.796875 49.328125 
C 46.796875 42.5 42.09375 34.78125 30.09375 34.78125 
L 17.09375 34.78125 
L 17.09375 64 
z
" id="CMSS17-80"/>
     </defs>
     <g transform="translate(51.821787 192.63402)rotate(-90)scale(0.22 -0.22)">
      <use transform="scale(0.996264)" xlink:href="#CMSS17-80"/>
      <use transform="translate(59.735586 0)scale(0.996264)" xlink:href="#CMSS17-91"/>
      <use transform="translate(86.921025 0)scale(0.996264)" xlink:href="#CMSS17-97"/>
      <use transform="translate(131.842946 0)scale(0.996264)" xlink:href="#CMSS17-46"/>
      <use transform="translate(157.86715 0)scale(0.996264)" xlink:href="#CMSS17-117"/>
      <use transform="translate(206.072094 0)scale(0.996264)" xlink:href="#CMSS17-46"/>
      <use transform="translate(232.096298 0)scale(0.996264)" xlink:href="#CMSS17-93"/>
     </g>
    </g>
   </g>
   <g id="line2d_27">
    <defs>
     <path d="M 0 -7.5 
L -6.495191 3.75 
L 6.495191 3.75 
z
" id="m27b6c25d15" style="stroke:#000000;stroke-linejoin:miter;stroke-opacity:0.75;stroke-width:2.5;"/>
    </defs>
    <g clip-path="url(#p868e7e4a50)">
     <use style="fill:#ff0000;fill-opacity:0.75;stroke:#000000;stroke-linejoin:miter;stroke-opacity:0.75;stroke-width:2.5;" x="615.089311" xlink:href="#m27b6c25d15" y="50.456917"/>
    </g>
   </g>
   <g id="line2d_28">
    <defs>
     <path d="M 0 -7.5 
L -7.5 -0 
L -0 7.5 
L 7.5 0 
z
" id="m8bfb35d6be" style="stroke:#000000;stroke-linejoin:miter;stroke-opacity:0.75;stroke-width:2.5;"/>
    </defs>
    <g clip-path="url(#p868e7e4a50)">
     <use style="fill:#008000;fill-opacity:0.75;stroke:#000000;stroke-linejoin:miter;stroke-opacity:0.75;stroke-width:2.5;" x="606.139376" xlink:href="#m8bfb35d6be" y="61.083308"/>
    </g>
   </g>
   <g id="line2d_29">
    <defs>
     <path d="M 0 -7.5 
L -7.132924 -2.317627 
L -4.408389 6.067627 
L 4.408389 6.067627 
L 7.132924 -2.317627 
z
" id="m343dbb4926" style="stroke:#000000;stroke-linejoin:miter;stroke-opacity:0.75;stroke-width:2.5;"/>
    </defs>
    <g clip-path="url(#p868e7e4a50)">
     <use style="fill:#0000ff;fill-opacity:0.75;stroke:#000000;stroke-linejoin:miter;stroke-opacity:0.75;stroke-width:2.5;" x="257.907165" xlink:href="#m343dbb4926" y="174.607172"/>
    </g>
   </g>
   <g id="line2d_30">
    <defs>
     <path d="M 0 -7.5 
L -6.495191 -3.75 
L -6.495191 3.75 
L -0 7.5 
L 6.495191 3.75 
L 6.495191 -3.75 
z
" id="m41ab2501b8" style="stroke:#000000;stroke-linejoin:miter;stroke-opacity:0.75;stroke-width:2.5;"/>
    </defs>
    <g clip-path="url(#p868e7e4a50)">
     <use style="fill:#00bfbf;fill-opacity:0.75;stroke:#000000;stroke-linejoin:miter;stroke-opacity:0.75;stroke-width:2.5;" x="158.758665" xlink:href="#m41ab2501b8" y="223.656755"/>
    </g>
   </g>
   <g id="patch_3">
    <path d="M 104.4 303.026087 
L 104.4 25.2 
" style="fill:none;stroke:#000000;stroke-linecap:square;stroke-linejoin:miter;stroke-width:0.8;"/>
   </g>
   <g id="patch_4">
    <path d="M 666.158242 303.026087 
L 666.158242 25.2 
" style="fill:none;stroke:#000000;stroke-linecap:square;stroke-linejoin:miter;stroke-width:0.8;"/>
   </g>
   <g id="patch_5">
    <path d="M 104.4 303.026087 
L 666.158242 303.026087 
" style="fill:none;stroke:#000000;stroke-linecap:square;stroke-linejoin:miter;stroke-width:0.8;"/>
   </g>
   <g id="patch_6">
    <path d="M 104.4 25.2 
L 666.158242 25.2 
" style="fill:none;stroke:#000000;stroke-linecap:square;stroke-linejoin:miter;stroke-width:0.8;"/>
   </g>
   <g id="text_16">
    <!-- 7HQ 2MeOH -->
    <defs>
     <path d="M 21.703125 59 
C 22.90625 59 24.09375 59 25.296875 59 
L 36.796875 59 
C 22.5 42.359375 14.296875 21.328125 14.296875 -0.5 
L 22.296875 -0.5 
C 22.296875 20.671875 29.296875 42.125 43 59.296875 
L 43 65.765625 
L 3.90625 65.765625 
L 3.90625 59 
z
" id="CMSS17-55"/>
     <path d="M 57.40625 69 
L 49 69 
L 49 39.078125 
L 17.203125 39.078125 
L 17.203125 69 
L 8.796875 69 
L 8.796875 0 
L 17.203125 0 
L 17.203125 33 
L 49 33 
L 49 0 
L 57.40625 0 
z
" id="CMSS17-72"/>
     <path d="M 50 3.15625 
C 62.203125 13.015625 64 26.390625 64 33.96875 
C 64 54.703125 50.296875 70.265625 34.59375 70.265625 
C 18.90625 70.265625 5.203125 54.640625 5.203125 34.03125 
C 5.203125 13.234375 19.09375 -2 34.59375 -2 
C 38.09375 -2 41.09375 -1.203125 43.203125 -0.40625 
L 51.59375 -13 
L 61.40625 -13 
z
M 39.5 5.0625 
C 38.09375 4.578125 36.40625 4.265625 34.59375 4.265625 
C 23.796875 4.265625 13.40625 15.515625 13.40625 34.03125 
C 13.40625 52.453125 23.703125 64 34.59375 64 
C 45.59375 64 55.796875 52.34375 55.796875 34.03125 
C 55.796875 27.671875 54.796875 17.015625 46.09375 8.84375 
L 38.90625 18.90625 
L 30.296875 18.90625 
z
" id="CMSS17-81"/>
     <path d="M 25.796875 21.203125 
C 28.59375 24.078125 32.796875 27.5625 35.703125 31.046875 
C 38.5 34.4375 42.203125 39.234375 42.203125 46.203125 
C 42.203125 57.140625 34.796875 67 22.203125 67 
C 12.296875 67 6.59375 60.828125 3.90625 51.15625 
L 7.796875 45.765625 
C 10 54.84375 13.09375 60.625 20.90625 60.625 
C 29.5 60.625 34.296875 53.640625 34.296875 45.96875 
C 34.296875 36.796875 27.296875 29.703125 22 24.421875 
C 16.09375 18.546875 10.296875 12.5625 4.703125 6.375 
L 4.703125 0 
L 42.203125 0 
L 42.203125 6.765625 
L 25.203125 6.765625 
C 24 6.765625 22.796875 6.765625 21.59375 6.765625 
L 11.59375 6.765625 
L 11.59375 6.859375 
z
" id="CMSS17-50"/>
     <path d="M 39.09375 21.515625 
C 39.09375 24.84375 38.90625 31.296875 35.703125 36.640625 
C 32.203125 42.390625 26.5 44 22.203125 44 
C 11.796875 44 3 34.1875 3 21.484375 
C 3 9.09375 12.09375 -1 23.59375 -1 
C 28.09375 -1 33.59375 0.296875 38.59375 3.875 
C 38.59375 4.28125 38.40625 6.46875 38.296875 6.5625 
C 38.296875 6.765625 38 9.84375 38 10.25 
C 33.203125 6.359375 27.703125 5.078125 23.703125 5.078125 
C 17.296875 5.078125 10.40625 10.421875 10.09375 21.515625 
z
M 10.90625 27 
C 12.203125 32.5625 16.59375 37.828125 22.203125 37.828125 
C 23.703125 37.828125 30.703125 37.828125 32.5 27 
z
" id="CMSS17-101"/>
     <path d="M 64 34.03125 
C 64 54.734375 50.296875 70.265625 34.59375 70.265625 
C 18.90625 70.265625 5.203125 54.640625 5.203125 34.03125 
C 5.203125 13.234375 19.09375 -2 34.59375 -2 
C 50.09375 -2 64 13.234375 64 34.03125 
z
M 34.59375 4.265625 
C 23.59375 4.265625 13.59375 16.515625 13.59375 35.328125 
C 13.59375 53.640625 24.203125 64 34.59375 64 
C 45 64 55.59375 53.640625 55.59375 35.328125 
C 55.59375 16.421875 45.5 4.265625 34.59375 4.265625 
z
" id="CMSS17-79"/>
    </defs>
    <g transform="translate(328.254841 19.2)scale(0.22 -0.22)">
     <use transform="scale(0.996264)" xlink:href="#CMSS17-55"/>
     <use transform="translate(46.843624 0)scale(0.996264)" xlink:href="#CMSS17-72"/>
     <use transform="translate(112.905143 0)scale(0.996264)" xlink:href="#CMSS17-81"/>
     <use transform="translate(213.158511 0)scale(0.996264)" xlink:href="#CMSS17-50"/>
     <use transform="translate(260.002134 0)scale(0.996264)" xlink:href="#CMSS17-77"/>
     <use transform="translate(341.678164 0)scale(0.996264)" xlink:href="#CMSS17-101"/>
     <use transform="translate(383.316986 0)scale(0.996264)" xlink:href="#CMSS17-79"/>
     <use transform="translate(452.341242 0)scale(0.996264)" xlink:href="#CMSS17-72"/>
    </g>
   </g>
  </g>
  <g id="axes_2">
   <g id="patch_7">
    <path d="M 820.641758 303.026087 
L 1382.4 303.026087 
L 1382.4 25.2 
L 820.641758 25.2 
z
" style="fill:#ffffff;"/>
   </g>
   <g id="matplotlib.axis_3">
    <g id="xtick_8">
     <g id="line2d_31">
      <path clip-path="url(#p7e6597bbcc)" d="M 820.641758 303.026087 
L 820.641758 25.2 
" style="fill:none;stroke:#b0b0b0;stroke-linecap:square;stroke-width:0.8;"/>
     </g>
     <g id="line2d_32">
      <g>
       <use style="stroke:#000000;stroke-width:0.8;" x="820.641758" xlink:href="#m15a8d90342" y="303.026087"/>
      </g>
     </g>
     <g id="text_17">
      <!-- $0.00$ -->
      <g transform="translate(802.583211 325.24678)scale(0.22 -0.22)">
       <use transform="scale(0.996264)" xlink:href="#CMR17-48"/>
       <use transform="translate(45.690477 0)scale(0.996264)" xlink:href="#CMMI12-58"/>
       <use transform="translate(72.787654 0)scale(0.996264)" xlink:href="#CMR17-48"/>
       <use transform="translate(118.478131 0)scale(0.996264)" xlink:href="#CMR17-48"/>
      </g>
     </g>
    </g>
    <g id="xtick_9">
     <g id="line2d_33">
      <path clip-path="url(#p7e6597bbcc)" d="M 944.905066 303.026087 
L 944.905066 25.2 
" style="fill:none;stroke:#b0b0b0;stroke-linecap:square;stroke-width:0.8;"/>
     </g>
     <g id="line2d_34">
      <g>
       <use style="stroke:#000000;stroke-width:0.8;" x="944.905066" xlink:href="#m15a8d90342" y="303.026087"/>
      </g>
     </g>
     <g id="text_18">
      <!-- $0.05$ -->
      <g transform="translate(926.84652 325.24678)scale(0.22 -0.22)">
       <use transform="scale(0.996264)" xlink:href="#CMR17-48"/>
       <use transform="translate(45.690477 0)scale(0.996264)" xlink:href="#CMMI12-58"/>
       <use transform="translate(72.787654 0)scale(0.996264)" xlink:href="#CMR17-48"/>
       <use transform="translate(118.478131 0)scale(0.996264)" xlink:href="#CMR17-53"/>
      </g>
     </g>
    </g>
    <g id="xtick_10">
     <g id="line2d_35">
      <path clip-path="url(#p7e6597bbcc)" d="M 1069.168375 303.026087 
L 1069.168375 25.2 
" style="fill:none;stroke:#b0b0b0;stroke-linecap:square;stroke-width:0.8;"/>
     </g>
     <g id="line2d_36">
      <g>
       <use style="stroke:#000000;stroke-width:0.8;" x="1069.168375" xlink:href="#m15a8d90342" y="303.026087"/>
      </g>
     </g>
     <g id="text_19">
      <!-- $0.10$ -->
      <g transform="translate(1051.109828 325.24678)scale(0.22 -0.22)">
       <use transform="scale(0.996264)" xlink:href="#CMR17-48"/>
       <use transform="translate(45.690477 0)scale(0.996264)" xlink:href="#CMMI12-58"/>
       <use transform="translate(72.787654 0)scale(0.996264)" xlink:href="#CMR17-49"/>
       <use transform="translate(118.478131 0)scale(0.996264)" xlink:href="#CMR17-48"/>
      </g>
     </g>
    </g>
    <g id="xtick_11">
     <g id="line2d_37">
      <path clip-path="url(#p7e6597bbcc)" d="M 1193.431683 303.026087 
L 1193.431683 25.2 
" style="fill:none;stroke:#b0b0b0;stroke-linecap:square;stroke-width:0.8;"/>
     </g>
     <g id="line2d_38">
      <g>
       <use style="stroke:#000000;stroke-width:0.8;" x="1193.431683" xlink:href="#m15a8d90342" y="303.026087"/>
      </g>
     </g>
     <g id="text_20">
      <!-- $0.15$ -->
      <g transform="translate(1175.373136 325.24678)scale(0.22 -0.22)">
       <use transform="scale(0.996264)" xlink:href="#CMR17-48"/>
       <use transform="translate(45.690477 0)scale(0.996264)" xlink:href="#CMMI12-58"/>
       <use transform="translate(72.787654 0)scale(0.996264)" xlink:href="#CMR17-49"/>
       <use transform="translate(118.478131 0)scale(0.996264)" xlink:href="#CMR17-53"/>
      </g>
     </g>
    </g>
    <g id="xtick_12">
     <g id="line2d_39">
      <path clip-path="url(#p7e6597bbcc)" d="M 1317.694991 303.026087 
L 1317.694991 25.2 
" style="fill:none;stroke:#b0b0b0;stroke-linecap:square;stroke-width:0.8;"/>
     </g>
     <g id="line2d_40">
      <g>
       <use style="stroke:#000000;stroke-width:0.8;" x="1317.694991" xlink:href="#m15a8d90342" y="303.026087"/>
      </g>
     </g>
     <g id="text_21">
      <!-- $0.20$ -->
      <g transform="translate(1299.636444 325.24678)scale(0.22 -0.22)">
       <use transform="scale(0.996264)" xlink:href="#CMR17-48"/>
       <use transform="translate(45.690477 0)scale(0.996264)" xlink:href="#CMMI12-58"/>
       <use transform="translate(72.787654 0)scale(0.996264)" xlink:href="#CMR17-50"/>
       <use transform="translate(118.478131 0)scale(0.996264)" xlink:href="#CMR17-48"/>
      </g>
     </g>
    </g>
    <g id="text_22">
     <!-- M[a.u.] -->
     <g transform="translate(1070.586453 349.928592)scale(0.22 -0.22)">
      <use transform="scale(0.996264)" xlink:href="#CMSS17-77"/>
      <use transform="translate(81.67603 0)scale(0.996264)" xlink:href="#CMSS17-91"/>
      <use transform="translate(108.861469 0)scale(0.996264)" xlink:href="#CMSS17-97"/>
      <use transform="translate(153.783389 0)scale(0.996264)" xlink:href="#CMSS17-46"/>
      <use transform="translate(179.807594 0)scale(0.996264)" xlink:href="#CMSS17-117"/>
      <use transform="translate(228.012537 0)scale(0.996264)" xlink:href="#CMSS17-46"/>
      <use transform="translate(254.036742 0)scale(0.996264)" xlink:href="#CMSS17-93"/>
     </g>
    </g>
   </g>
   <g id="matplotlib.axis_4">
    <g id="ytick_7">
     <g id="line2d_41">
      <path clip-path="url(#p7e6597bbcc)" d="M 820.641758 303.026087 
L 1382.4 303.026087 
" style="fill:none;stroke:#b0b0b0;stroke-linecap:square;stroke-width:0.8;"/>
     </g>
     <g id="line2d_42">
      <g>
       <use style="stroke:#000000;stroke-width:0.8;" x="820.641758" xlink:href="#m8f284e0244" y="303.026087"/>
      </g>
     </g>
     <g id="text_23">
      <!-- $0.0$ -->
      <g transform="translate(787.576569 310.636434)scale(0.22 -0.22)">
       <use transform="scale(0.996264)" xlink:href="#CMR17-48"/>
       <use transform="translate(45.690477 0)scale(0.996264)" xlink:href="#CMMI12-58"/>
       <use transform="translate(72.787654 0)scale(0.996264)" xlink:href="#CMR17-48"/>
      </g>
     </g>
    </g>
    <g id="ytick_8">
     <g id="line2d_43">
      <path clip-path="url(#p7e6597bbcc)" d="M 820.641758 223.050143 
L 1382.4 223.050143 
" style="fill:none;stroke:#b0b0b0;stroke-linecap:square;stroke-width:0.8;"/>
     </g>
     <g id="line2d_44">
      <g>
       <use style="stroke:#000000;stroke-width:0.8;" x="820.641758" xlink:href="#m8f284e0244" y="223.050143"/>
      </g>
     </g>
     <g id="text_24">
      <!-- $0.1$ -->
      <g transform="translate(787.576569 230.660489)scale(0.22 -0.22)">
       <use transform="scale(0.996264)" xlink:href="#CMR17-48"/>
       <use transform="translate(45.690477 0)scale(0.996264)" xlink:href="#CMMI12-58"/>
       <use transform="translate(72.787654 0)scale(0.996264)" xlink:href="#CMR17-49"/>
      </g>
     </g>
    </g>
    <g id="ytick_9">
     <g id="line2d_45">
      <path clip-path="url(#p7e6597bbcc)" d="M 820.641758 143.074198 
L 1382.4 143.074198 
" style="fill:none;stroke:#b0b0b0;stroke-linecap:square;stroke-width:0.8;"/>
     </g>
     <g id="line2d_46">
      <g>
       <use style="stroke:#000000;stroke-width:0.8;" x="820.641758" xlink:href="#m8f284e0244" y="143.074198"/>
      </g>
     </g>
     <g id="text_25">
      <!-- $0.2$ -->
      <g transform="translate(787.576569 150.684545)scale(0.22 -0.22)">
       <use transform="scale(0.996264)" xlink:href="#CMR17-48"/>
       <use transform="translate(45.690477 0)scale(0.996264)" xlink:href="#CMMI12-58"/>
       <use transform="translate(72.787654 0)scale(0.996264)" xlink:href="#CMR17-50"/>
      </g>
     </g>
    </g>
    <g id="ytick_10">
     <g id="line2d_47">
      <path clip-path="url(#p7e6597bbcc)" d="M 820.641758 63.098254 
L 1382.4 63.098254 
" style="fill:none;stroke:#b0b0b0;stroke-linecap:square;stroke-width:0.8;"/>
     </g>
     <g id="line2d_48">
      <g>
       <use style="stroke:#000000;stroke-width:0.8;" x="820.641758" xlink:href="#m8f284e0244" y="63.098254"/>
      </g>
     </g>
     <g id="text_26">
      <!-- $0.3$ -->
      <defs>
       <path d="M 22.09375 33.703125 
C 31 33.703125 34.90625 25.96875 34.90625 17.03125 
C 34.90625 5 28.5 0.390625 22.703125 0.390625 
C 17.40625 0.390625 8.796875 3.03125 6.09375 10.828125 
C 6.59375 10.625 7.09375 10.625 7.59375 10.625 
C 10 10.625 11.796875 12.21875 11.796875 14.8125 
C 11.796875 17.703125 9.59375 19 7.59375 19 
C 5.90625 19 3.296875 18.203125 3.296875 14.46875 
C 3.296875 5.234375 12.296875 -2 22.90625 -2 
C 34 -2 42.5 6.71875 42.5 16.953125 
C 42.5 26.671875 34.5 33.703125 25 34.796875 
C 32.59375 36.375 39.90625 43.0625 39.90625 52.015625 
C 39.90625 59.6875 32 65.296875 23 65.296875 
C 13.90625 65.296875 5.90625 59.828125 5.90625 52.015625 
C 5.90625 48.59375 8.5 48 9.796875 48 
C 11.90625 48 13.703125 49.296875 13.703125 51.890625 
C 13.703125 54.46875 11.90625 55.765625 9.796875 55.765625 
C 9.40625 55.765625 8.90625 55.765625 8.5 55.578125 
C 11.40625 61.859375 19.296875 63 22.796875 63 
C 26.296875 63 32.90625 61.328125 32.90625 51.875 
C 32.90625 49.109375 32.5 44.1875 29.09375 39.84375 
C 26.09375 36 22.703125 36 19.40625 35.6875 
C 18.90625 35.6875 16.59375 35.453125 16.203125 35.453125 
C 15.5 35.359375 15.09375 35.265625 15.09375 34.5 
C 15.09375 33.796875 15.203125 33.703125 17.203125 33.703125 
z
" id="CMR17-51"/>
      </defs>
      <g transform="translate(787.576569 70.708601)scale(0.22 -0.22)">
       <use transform="scale(0.996264)" xlink:href="#CMR17-48"/>
       <use transform="translate(45.690477 0)scale(0.996264)" xlink:href="#CMMI12-58"/>
       <use transform="translate(72.787654 0)scale(0.996264)" xlink:href="#CMR17-51"/>
      </g>
     </g>
    </g>
    <g id="text_27">
     <!-- P[a.u.] -->
     <g transform="translate(778.115451 192.63402)rotate(-90)scale(0.22 -0.22)">
      <use transform="scale(0.996264)" xlink:href="#CMSS17-80"/>
      <use transform="translate(59.735586 0)scale(0.996264)" xlink:href="#CMSS17-91"/>
      <use transform="translate(86.921025 0)scale(0.996264)" xlink:href="#CMSS17-97"/>
      <use transform="translate(131.842946 0)scale(0.996264)" xlink:href="#CMSS17-46"/>
      <use transform="translate(157.86715 0)scale(0.996264)" xlink:href="#CMSS17-117"/>
      <use transform="translate(206.072094 0)scale(0.996264)" xlink:href="#CMSS17-46"/>
      <use transform="translate(232.096298 0)scale(0.996264)" xlink:href="#CMSS17-93"/>
     </g>
    </g>
   </g>
   <g id="line2d_49">
    <g clip-path="url(#p7e6597bbcc)">
     <use style="fill:#ff0000;fill-opacity:0.75;stroke:#000000;stroke-linejoin:miter;stroke-opacity:0.75;stroke-width:2.5;" x="1331.331069" xlink:href="#m27b6c25d15" y="50.456917"/>
    </g>
   </g>
   <g id="line2d_50">
    <g clip-path="url(#p7e6597bbcc)">
     <use style="fill:#008000;fill-opacity:0.75;stroke:#000000;stroke-linejoin:miter;stroke-opacity:0.75;stroke-width:2.5;" x="1189.642832" xlink:href="#m8bfb35d6be" y="109.187038"/>
    </g>
   </g>
   <g id="line2d_51">
    <g clip-path="url(#p7e6597bbcc)">
     <use style="fill:#0000ff;fill-opacity:0.75;stroke:#000000;stroke-linejoin:miter;stroke-opacity:0.75;stroke-width:2.5;" x="1059.584287" xlink:href="#m343dbb4926" y="154.136978"/>
    </g>
   </g>
   <g id="line2d_52">
    <g clip-path="url(#p7e6597bbcc)">
     <use style="fill:#00bfbf;fill-opacity:0.75;stroke:#000000;stroke-linejoin:miter;stroke-opacity:0.75;stroke-width:2.5;" x="909.793073" xlink:href="#m41ab2501b8" y="212.227731"/>
    </g>
   </g>
   <g id="patch_8">
    <path d="M 820.641758 303.026087 
L 820.641758 25.2 
" style="fill:none;stroke:#000000;stroke-linecap:square;stroke-linejoin:miter;stroke-width:0.8;"/>
   </g>
   <g id="patch_9">
    <path d="M 1382.4 303.026087 
L 1382.4 25.2 
" style="fill:none;stroke:#000000;stroke-linecap:square;stroke-linejoin:miter;stroke-width:0.8;"/>
   </g>
   <g id="patch_10">
    <path d="M 820.641758 303.026087 
L 1382.4 303.026087 
" style="fill:none;stroke:#000000;stroke-linecap:square;stroke-linejoin:miter;stroke-width:0.8;"/>
   </g>
   <g id="patch_11">
    <path d="M 820.641758 25.2 
L 1382.4 25.2 
" style="fill:none;stroke:#000000;stroke-linecap:square;stroke-linejoin:miter;stroke-width:0.8;"/>
   </g>
   <g id="text_28">
    <!-- 7HQ formate -->
    <defs>
     <path d="M 16.796875 37 
L 26.90625 37 
L 26.90625 42.765625 
L 16.59375 42.765625 
L 16.59375 55.609375 
C 16.59375 62.71875 22 63.9375 25.09375 63.9375 
C 26.09375 63.9375 28.90625 63.9375 32.5 62.640625 
L 32.5 69.203125 
C 30.203125 69.703125 27.40625 70 25.203125 70 
C 15.90625 70 9.40625 62.390625 9.40625 52.484375 
L 9.40625 42.765625 
L 2.5 42.765625 
L 2.5 37 
L 9.40625 37 
L 9.40625 0 
L 16.796875 0 
z
" id="CMSS17-102"/>
     <path d="M 44.203125 21.1875 
C 44.203125 34 34.703125 44 23.5 44 
C 12 44 2.703125 33.703125 2.703125 21.1875 
C 2.703125 8.5 12.296875 -1 23.40625 -1 
C 34.796875 -1 44.203125 8.796875 44.203125 21.1875 
z
M 23.5 5.265625 
C 16.40625 5.265625 10.296875 11.078125 10.296875 22 
C 10.296875 33.609375 17.40625 37.921875 23.40625 37.921875 
C 29.90625 37.921875 36.59375 33.21875 36.59375 22 
C 36.59375 10.671875 30.09375 5.265625 23.5 5.265625 
z
" id="CMSS17-111"/>
     <path d="M 14.90625 21.296875 
C 14.90625 30.703125 21.796875 37 30.59375 37 
L 30.59375 43.578125 
C 24.203125 43.578125 18.203125 40.390625 14.59375 35.203125 
L 14.59375 43.09375 
L 7.5 43.09375 
L 7.5 0 
L 14.90625 0 
z
" id="CMSS17-114"/>
     <path d="M 67 29.328125 
C 67 36.0625 65.296875 44 54.09375 44 
C 46.59375 44 42.09375 39.3125 40.09375 36.421875 
C 38.296875 41.71875 34.09375 44 28.09375 44 
C 21.296875 44 17 40.125 14.703125 37.328125 
L 14.703125 43.09375 
L 7.40625 43.09375 
L 7.40625 0 
L 15 0 
L 15 24.359375 
C 15 30.296875 17.203125 37.9375 24.296875 37.9375 
C 33.40625 37.9375 33.40625 31.5 33.40625 28.578125 
L 33.40625 0 
L 41 0 
L 41 24.359375 
C 41 30.296875 43.203125 37.9375 50.296875 37.9375 
C 59.40625 37.9375 59.40625 31.5 59.40625 28.578125 
L 59.40625 0 
L 67 0 
z
" id="CMSS17-109"/>
     <path d="M 16.703125 37 
L 29.703125 37 
L 29.703125 42.765625 
L 16.703125 42.765625 
L 16.703125 55 
L 9.59375 55 
L 9.59375 42.765625 
L 1.703125 42.765625 
L 1.703125 37 
L 9.40625 37 
L 9.40625 11.703125 
C 9.40625 6 10.703125 -1 17.296875 -1 
C 22.296875 -1 26.90625 0.390625 31.296875 2.6875 
L 29.703125 8.5625 
C 27.296875 6.46875 24.40625 5.265625 21.296875 5.265625 
C 16.90625 5.265625 16.703125 10.875 16.703125 13.375 
z
" id="CMSS17-116"/>
    </defs>
    <g transform="translate(1045.139574 19.2)scale(0.22 -0.22)">
     <use transform="scale(0.996264)" xlink:href="#CMSS17-55"/>
     <use transform="translate(46.843624 0)scale(0.996264)" xlink:href="#CMSS17-72"/>
     <use transform="translate(112.905143 0)scale(0.996264)" xlink:href="#CMSS17-81"/>
     <use transform="translate(213.158511 0)scale(0.996264)" xlink:href="#CMSS17-102"/>
     <use transform="translate(241.78517 0)scale(0.996264)" xlink:href="#CMSS17-111"/>
     <use transform="translate(286.026339 0)scale(0.996264)" xlink:href="#CMSS17-114"/>
     <use transform="translate(317.936112 0)scale(0.996264)" xlink:href="#CMSS17-109"/>
     <use transform="translate(392.165366 0)scale(0.996264)" xlink:href="#CMSS17-97"/>
     <use transform="translate(437.087287 0)scale(0.996264)" xlink:href="#CMSS17-116"/>
     <use transform="translate(470.918853 0)scale(0.996264)" xlink:href="#CMSS17-101"/>
    </g>
   </g>
  </g>
  <g id="axes_3">
   <g id="patch_12">
    <path d="M 104.4 664.2 
L 666.158242 664.2 
L 666.158242 386.373913 
L 104.4 386.373913 
z
" style="fill:#ffffff;"/>
   </g>
   <g id="matplotlib.axis_5">
    <g id="xtick_13">
     <g id="line2d_53">
      <path clip-path="url(#pa503132fc8)" d="M 104.4 664.2 
L 104.4 386.373913 
" style="fill:none;stroke:#b0b0b0;stroke-linecap:square;stroke-width:0.8;"/>
     </g>
     <g id="line2d_54">
      <g>
       <use style="stroke:#000000;stroke-width:0.8;" x="104.4" xlink:href="#m15a8d90342" y="664.2"/>
      </g>
     </g>
     <g id="text_29">
      <!-- $0.00$ -->
      <g transform="translate(86.341453 686.420693)scale(0.22 -0.22)">
       <use transform="scale(0.996264)" xlink:href="#CMR17-48"/>
       <use transform="translate(45.690477 0)scale(0.996264)" xlink:href="#CMMI12-58"/>
       <use transform="translate(72.787654 0)scale(0.996264)" xlink:href="#CMR17-48"/>
       <use transform="translate(118.478131 0)scale(0.996264)" xlink:href="#CMR17-48"/>
      </g>
     </g>
    </g>
    <g id="xtick_14">
     <g id="line2d_55">
      <path clip-path="url(#pa503132fc8)" d="M 212.2174 664.2 
L 212.2174 386.373913 
" style="fill:none;stroke:#b0b0b0;stroke-linecap:square;stroke-width:0.8;"/>
     </g>
     <g id="line2d_56">
      <g>
       <use style="stroke:#000000;stroke-width:0.8;" x="212.2174" xlink:href="#m15a8d90342" y="664.2"/>
      </g>
     </g>
     <g id="text_30">
      <!-- $0.05$ -->
      <g transform="translate(194.158853 686.420693)scale(0.22 -0.22)">
       <use transform="scale(0.996264)" xlink:href="#CMR17-48"/>
       <use transform="translate(45.690477 0)scale(0.996264)" xlink:href="#CMMI12-58"/>
       <use transform="translate(72.787654 0)scale(0.996264)" xlink:href="#CMR17-48"/>
       <use transform="translate(118.478131 0)scale(0.996264)" xlink:href="#CMR17-53"/>
      </g>
     </g>
    </g>
    <g id="xtick_15">
     <g id="line2d_57">
      <path clip-path="url(#pa503132fc8)" d="M 320.034799 664.2 
L 320.034799 386.373913 
" style="fill:none;stroke:#b0b0b0;stroke-linecap:square;stroke-width:0.8;"/>
     </g>
     <g id="line2d_58">
      <g>
       <use style="stroke:#000000;stroke-width:0.8;" x="320.034799" xlink:href="#m15a8d90342" y="664.2"/>
      </g>
     </g>
     <g id="text_31">
      <!-- $0.10$ -->
      <g transform="translate(301.976252 686.420693)scale(0.22 -0.22)">
       <use transform="scale(0.996264)" xlink:href="#CMR17-48"/>
       <use transform="translate(45.690477 0)scale(0.996264)" xlink:href="#CMMI12-58"/>
       <use transform="translate(72.787654 0)scale(0.996264)" xlink:href="#CMR17-49"/>
       <use transform="translate(118.478131 0)scale(0.996264)" xlink:href="#CMR17-48"/>
      </g>
     </g>
    </g>
    <g id="xtick_16">
     <g id="line2d_59">
      <path clip-path="url(#pa503132fc8)" d="M 427.852199 664.2 
L 427.852199 386.373913 
" style="fill:none;stroke:#b0b0b0;stroke-linecap:square;stroke-width:0.8;"/>
     </g>
     <g id="line2d_60">
      <g>
       <use style="stroke:#000000;stroke-width:0.8;" x="427.852199" xlink:href="#m15a8d90342" y="664.2"/>
      </g>
     </g>
     <g id="text_32">
      <!-- $0.15$ -->
      <g transform="translate(409.793652 686.420693)scale(0.22 -0.22)">
       <use transform="scale(0.996264)" xlink:href="#CMR17-48"/>
       <use transform="translate(45.690477 0)scale(0.996264)" xlink:href="#CMMI12-58"/>
       <use transform="translate(72.787654 0)scale(0.996264)" xlink:href="#CMR17-49"/>
       <use transform="translate(118.478131 0)scale(0.996264)" xlink:href="#CMR17-53"/>
      </g>
     </g>
    </g>
    <g id="xtick_17">
     <g id="line2d_61">
      <path clip-path="url(#pa503132fc8)" d="M 535.669598 664.2 
L 535.669598 386.373913 
" style="fill:none;stroke:#b0b0b0;stroke-linecap:square;stroke-width:0.8;"/>
     </g>
     <g id="line2d_62">
      <g>
       <use style="stroke:#000000;stroke-width:0.8;" x="535.669598" xlink:href="#m15a8d90342" y="664.2"/>
      </g>
     </g>
     <g id="text_33">
      <!-- $0.20$ -->
      <g transform="translate(517.611051 686.420693)scale(0.22 -0.22)">
       <use transform="scale(0.996264)" xlink:href="#CMR17-48"/>
       <use transform="translate(45.690477 0)scale(0.996264)" xlink:href="#CMMI12-58"/>
       <use transform="translate(72.787654 0)scale(0.996264)" xlink:href="#CMR17-50"/>
       <use transform="translate(118.478131 0)scale(0.996264)" xlink:href="#CMR17-48"/>
      </g>
     </g>
    </g>
    <g id="xtick_18">
     <g id="line2d_63">
      <path clip-path="url(#pa503132fc8)" d="M 643.486998 664.2 
L 643.486998 386.373913 
" style="fill:none;stroke:#b0b0b0;stroke-linecap:square;stroke-width:0.8;"/>
     </g>
     <g id="line2d_64">
      <g>
       <use style="stroke:#000000;stroke-width:0.8;" x="643.486998" xlink:href="#m15a8d90342" y="664.2"/>
      </g>
     </g>
     <g id="text_34">
      <!-- $0.25$ -->
      <g transform="translate(625.428451 686.420693)scale(0.22 -0.22)">
       <use transform="scale(0.996264)" xlink:href="#CMR17-48"/>
       <use transform="translate(45.690477 0)scale(0.996264)" xlink:href="#CMMI12-58"/>
       <use transform="translate(72.787654 0)scale(0.996264)" xlink:href="#CMR17-50"/>
       <use transform="translate(118.478131 0)scale(0.996264)" xlink:href="#CMR17-53"/>
      </g>
     </g>
    </g>
    <g id="text_35">
     <!-- M[a.u.] -->
     <g transform="translate(354.344695 711.102505)scale(0.22 -0.22)">
      <use transform="scale(0.996264)" xlink:href="#CMSS17-77"/>
      <use transform="translate(81.67603 0)scale(0.996264)" xlink:href="#CMSS17-91"/>
      <use transform="translate(108.861469 0)scale(0.996264)" xlink:href="#CMSS17-97"/>
      <use transform="translate(153.783389 0)scale(0.996264)" xlink:href="#CMSS17-46"/>
      <use transform="translate(179.807594 0)scale(0.996264)" xlink:href="#CMSS17-117"/>
      <use transform="translate(228.012537 0)scale(0.996264)" xlink:href="#CMSS17-46"/>
      <use transform="translate(254.036742 0)scale(0.996264)" xlink:href="#CMSS17-93"/>
     </g>
    </g>
   </g>
   <g id="matplotlib.axis_6">
    <g id="ytick_11">
     <g id="line2d_65">
      <path clip-path="url(#pa503132fc8)" d="M 104.4 664.2 
L 666.158242 664.2 
" style="fill:none;stroke:#b0b0b0;stroke-linecap:square;stroke-width:0.8;"/>
     </g>
     <g id="line2d_66">
      <g>
       <use style="stroke:#000000;stroke-width:0.8;" x="104.4" xlink:href="#m8f284e0244" y="664.2"/>
      </g>
     </g>
     <g id="text_36">
      <!-- $0.0$ -->
      <g transform="translate(71.334811 671.810347)scale(0.22 -0.22)">
       <use transform="scale(0.996264)" xlink:href="#CMR17-48"/>
       <use transform="translate(45.690477 0)scale(0.996264)" xlink:href="#CMMI12-58"/>
       <use transform="translate(72.787654 0)scale(0.996264)" xlink:href="#CMR17-48"/>
      </g>
     </g>
    </g>
    <g id="ytick_12">
     <g id="line2d_67">
      <path clip-path="url(#pa503132fc8)" d="M 104.4 605.002261 
L 666.158242 605.002261 
" style="fill:none;stroke:#b0b0b0;stroke-linecap:square;stroke-width:0.8;"/>
     </g>
     <g id="line2d_68">
      <g>
       <use style="stroke:#000000;stroke-width:0.8;" x="104.4" xlink:href="#m8f284e0244" y="605.002261"/>
      </g>
     </g>
     <g id="text_37">
      <!-- $0.1$ -->
      <g transform="translate(71.334811 612.612608)scale(0.22 -0.22)">
       <use transform="scale(0.996264)" xlink:href="#CMR17-48"/>
       <use transform="translate(45.690477 0)scale(0.996264)" xlink:href="#CMMI12-58"/>
       <use transform="translate(72.787654 0)scale(0.996264)" xlink:href="#CMR17-49"/>
      </g>
     </g>
    </g>
    <g id="ytick_13">
     <g id="line2d_69">
      <path clip-path="url(#pa503132fc8)" d="M 104.4 545.804523 
L 666.158242 545.804523 
" style="fill:none;stroke:#b0b0b0;stroke-linecap:square;stroke-width:0.8;"/>
     </g>
     <g id="line2d_70">
      <g>
       <use style="stroke:#000000;stroke-width:0.8;" x="104.4" xlink:href="#m8f284e0244" y="545.804523"/>
      </g>
     </g>
     <g id="text_38">
      <!-- $0.2$ -->
      <g transform="translate(71.334811 553.414869)scale(0.22 -0.22)">
       <use transform="scale(0.996264)" xlink:href="#CMR17-48"/>
       <use transform="translate(45.690477 0)scale(0.996264)" xlink:href="#CMMI12-58"/>
       <use transform="translate(72.787654 0)scale(0.996264)" xlink:href="#CMR17-50"/>
      </g>
     </g>
    </g>
    <g id="ytick_14">
     <g id="line2d_71">
      <path clip-path="url(#pa503132fc8)" d="M 104.4 486.606784 
L 666.158242 486.606784 
" style="fill:none;stroke:#b0b0b0;stroke-linecap:square;stroke-width:0.8;"/>
     </g>
     <g id="line2d_72">
      <g>
       <use style="stroke:#000000;stroke-width:0.8;" x="104.4" xlink:href="#m8f284e0244" y="486.606784"/>
      </g>
     </g>
     <g id="text_39">
      <!-- $0.3$ -->
      <g transform="translate(71.334811 494.217131)scale(0.22 -0.22)">
       <use transform="scale(0.996264)" xlink:href="#CMR17-48"/>
       <use transform="translate(45.690477 0)scale(0.996264)" xlink:href="#CMMI12-58"/>
       <use transform="translate(72.787654 0)scale(0.996264)" xlink:href="#CMR17-51"/>
      </g>
     </g>
    </g>
    <g id="ytick_15">
     <g id="line2d_73">
      <path clip-path="url(#pa503132fc8)" d="M 104.4 427.409045 
L 666.158242 427.409045 
" style="fill:none;stroke:#b0b0b0;stroke-linecap:square;stroke-width:0.8;"/>
     </g>
     <g id="line2d_74">
      <g>
       <use style="stroke:#000000;stroke-width:0.8;" x="104.4" xlink:href="#m8f284e0244" y="427.409045"/>
      </g>
     </g>
     <g id="text_40">
      <!-- $0.4$ -->
      <g transform="translate(71.334811 435.019392)scale(0.22 -0.22)">
       <use transform="scale(0.996264)" xlink:href="#CMR17-48"/>
       <use transform="translate(45.690477 0)scale(0.996264)" xlink:href="#CMMI12-58"/>
       <use transform="translate(72.787654 0)scale(0.996264)" xlink:href="#CMR17-52"/>
      </g>
     </g>
    </g>
    <g id="text_41">
     <!-- P[a.u.] -->
     <g transform="translate(61.873692 553.807933)rotate(-90)scale(0.22 -0.22)">
      <use transform="scale(0.996264)" xlink:href="#CMSS17-80"/>
      <use transform="translate(59.735586 0)scale(0.996264)" xlink:href="#CMSS17-91"/>
      <use transform="translate(86.921025 0)scale(0.996264)" xlink:href="#CMSS17-97"/>
      <use transform="translate(131.842946 0)scale(0.996264)" xlink:href="#CMSS17-46"/>
      <use transform="translate(157.86715 0)scale(0.996264)" xlink:href="#CMSS17-117"/>
      <use transform="translate(206.072094 0)scale(0.996264)" xlink:href="#CMSS17-46"/>
      <use transform="translate(232.096298 0)scale(0.996264)" xlink:href="#CMSS17-93"/>
     </g>
    </g>
   </g>
   <g id="line2d_75">
    <g clip-path="url(#pa503132fc8)">
     <use style="fill:#ff0000;fill-opacity:0.75;stroke:#000000;stroke-linejoin:miter;stroke-opacity:0.75;stroke-width:2.5;" x="615.089311" xlink:href="#m27b6c25d15" y="411.63083"/>
    </g>
   </g>
   <g id="line2d_76">
    <g clip-path="url(#pa503132fc8)">
     <use style="fill:#008000;fill-opacity:0.75;stroke:#000000;stroke-linejoin:miter;stroke-opacity:0.75;stroke-width:2.5;" x="477.542169" xlink:href="#m8bfb35d6be" y="483.456802"/>
    </g>
   </g>
   <g id="line2d_77">
    <g clip-path="url(#pa503132fc8)">
     <use style="fill:#0000ff;fill-opacity:0.75;stroke:#000000;stroke-linejoin:miter;stroke-opacity:0.75;stroke-width:2.5;" x="228.47024" xlink:href="#m343dbb4926" y="542.022425"/>
    </g>
   </g>
   <g id="line2d_78">
    <g clip-path="url(#pa503132fc8)">
     <use style="fill:#00bfbf;fill-opacity:0.75;stroke:#000000;stroke-linejoin:miter;stroke-opacity:0.75;stroke-width:2.5;" x="156.779307" xlink:href="#m41ab2501b8" y="588.01183"/>
    </g>
   </g>
   <g id="patch_13">
    <path d="M 104.4 664.2 
L 104.4 386.373913 
" style="fill:none;stroke:#000000;stroke-linecap:square;stroke-linejoin:miter;stroke-width:0.8;"/>
   </g>
   <g id="patch_14">
    <path d="M 666.158242 664.2 
L 666.158242 386.373913 
" style="fill:none;stroke:#000000;stroke-linecap:square;stroke-linejoin:miter;stroke-width:0.8;"/>
   </g>
   <g id="patch_15">
    <path d="M 104.4 664.2 
L 666.158242 664.2 
" style="fill:none;stroke:#000000;stroke-linecap:square;stroke-linejoin:miter;stroke-width:0.8;"/>
   </g>
   <g id="patch_16">
    <path d="M 104.4 386.373913 
L 666.158242 386.373913 
" style="fill:none;stroke:#000000;stroke-linecap:square;stroke-linejoin:miter;stroke-width:0.8;"/>
   </g>
   <g id="text_42">
    <!-- uracil 5H2O -->
    <defs>
     <path d="M 38.5 39.703125 
C 38.5 40.390625 33.90625 42.40625 32.703125 42.796875 
C 29.40625 44 25.203125 44 24.09375 44 
C 11.09375 44 3.296875 32.703125 3.296875 21.296875 
C 3.296875 9.296875 12 -1 23.703125 -1 
C 30.40625 -1 35.203125 1.1875 39.09375 3.78125 
L 38.5 10.375 
C 34.203125 7.078125 29.203125 5.265625 23.796875 5.265625 
C 16 5.265625 10.90625 12.09375 10.90625 21.390625 
C 10.90625 28.609375 14.203125 37.71875 24.203125 37.71875 
C 29.703125 37.71875 32.796875 36.609375 37.40625 33.515625 
z
" id="CMSS17-99"/>
     <path d="M 15.296875 65.359375 
L 6.90625 65.359375 
L 6.90625 57 
L 15.296875 57 
z
M 14.796875 42.796875 
L 7.40625 42.796875 
L 7.40625 0 
L 14.796875 0 
z
" id="CMSS17-105"/>
     <path d="M 14.796875 69 
L 7.40625 69 
L 7.40625 0 
L 14.796875 0 
z
" id="CMSS17-108"/>
     <path d="M 14.59375 58.625 
L 39.09375 58.625 
L 39.09375 65 
L 7.296875 65 
L 7.296875 27.828125 
L 14 27.828125 
C 15.796875 31.96875 19.5 35 24.296875 35 
C 28.796875 35 33.796875 31.078125 33.796875 19.78125 
C 33.796875 7.703125 26.703125 4.171875 21.5 4.171875 
C 15.09375 4.171875 9.203125 8 6.59375 13.296875 
L 3.40625 7.796875 
C 8 0.765625 15.5 -2 21.5 -2 
C 33.09375 -2 42.203125 7.765625 42.203125 19.578125 
C 42.203125 31.71875 34.09375 41.078125 24.40625 41.078125 
C 20.90625 41.078125 17.5 39.890625 14.59375 37.484375 
z
" id="CMSS17-53"/>
    </defs>
    <g transform="translate(333.464857 380.373913)scale(0.22 -0.22)">
     <use transform="scale(0.996264)" xlink:href="#CMSS17-117"/>
     <use transform="translate(48.204943 0)scale(0.996264)" xlink:href="#CMSS17-114"/>
     <use transform="translate(80.114716 0)scale(0.996264)" xlink:href="#CMSS17-97"/>
     <use transform="translate(125.036636 0)scale(0.996264)" xlink:href="#CMSS17-99"/>
     <use transform="translate(166.675458 0)scale(0.996264)" xlink:href="#CMSS17-105"/>
     <use transform="translate(188.856181 0)scale(0.996264)" xlink:href="#CMSS17-108"/>
     <use transform="translate(242.266017 0)scale(0.996264)" xlink:href="#CMSS17-53"/>
     <use transform="translate(289.109641 0)scale(0.996264)" xlink:href="#CMSS17-72"/>
     <use transform="translate(355.17116 0)scale(0.996264)" xlink:href="#CMSS17-50"/>
     <use transform="translate(402.014783 0)scale(0.996264)" xlink:href="#CMSS17-79"/>
    </g>
   </g>
  </g>
  <g id="axes_4">
   <g id="patch_17">
    <path d="M 820.641758 664.2 
L 1382.4 664.2 
L 1382.4 386.373913 
L 820.641758 386.373913 
z
" style="fill:#ffffff;"/>
   </g>
   <g id="matplotlib.axis_7">
    <g id="xtick_19">
     <g id="line2d_79">
      <path clip-path="url(#p4f5e1b1253)" d="M 820.641758 664.2 
L 820.641758 386.373913 
" style="fill:none;stroke:#b0b0b0;stroke-linecap:square;stroke-width:0.8;"/>
     </g>
     <g id="line2d_80">
      <g>
       <use style="stroke:#000000;stroke-width:0.8;" x="820.641758" xlink:href="#m15a8d90342" y="664.2"/>
      </g>
     </g>
     <g id="text_43">
      <!-- $0.00$ -->
      <g transform="translate(802.583211 686.420693)scale(0.22 -0.22)">
       <use transform="scale(0.996264)" xlink:href="#CMR17-48"/>
       <use transform="translate(45.690477 0)scale(0.996264)" xlink:href="#CMMI12-58"/>
       <use transform="translate(72.787654 0)scale(0.996264)" xlink:href="#CMR17-48"/>
       <use transform="translate(118.478131 0)scale(0.996264)" xlink:href="#CMR17-48"/>
      </g>
     </g>
    </g>
    <g id="xtick_20">
     <g id="line2d_81">
      <path clip-path="url(#p4f5e1b1253)" d="M 958.913087 664.2 
L 958.913087 386.373913 
" style="fill:none;stroke:#b0b0b0;stroke-linecap:square;stroke-width:0.8;"/>
     </g>
     <g id="line2d_82">
      <g>
       <use style="stroke:#000000;stroke-width:0.8;" x="958.913087" xlink:href="#m15a8d90342" y="664.2"/>
      </g>
     </g>
     <g id="text_44">
      <!-- $0.05$ -->
      <g transform="translate(940.85454 686.420693)scale(0.22 -0.22)">
       <use transform="scale(0.996264)" xlink:href="#CMR17-48"/>
       <use transform="translate(45.690477 0)scale(0.996264)" xlink:href="#CMMI12-58"/>
       <use transform="translate(72.787654 0)scale(0.996264)" xlink:href="#CMR17-48"/>
       <use transform="translate(118.478131 0)scale(0.996264)" xlink:href="#CMR17-53"/>
      </g>
     </g>
    </g>
    <g id="xtick_21">
     <g id="line2d_83">
      <path clip-path="url(#p4f5e1b1253)" d="M 1097.184416 664.2 
L 1097.184416 386.373913 
" style="fill:none;stroke:#b0b0b0;stroke-linecap:square;stroke-width:0.8;"/>
     </g>
     <g id="line2d_84">
      <g>
       <use style="stroke:#000000;stroke-width:0.8;" x="1097.184416" xlink:href="#m15a8d90342" y="664.2"/>
      </g>
     </g>
     <g id="text_45">
      <!-- $0.10$ -->
      <g transform="translate(1079.125869 686.420693)scale(0.22 -0.22)">
       <use transform="scale(0.996264)" xlink:href="#CMR17-48"/>
       <use transform="translate(45.690477 0)scale(0.996264)" xlink:href="#CMMI12-58"/>
       <use transform="translate(72.787654 0)scale(0.996264)" xlink:href="#CMR17-49"/>
       <use transform="translate(118.478131 0)scale(0.996264)" xlink:href="#CMR17-48"/>
      </g>
     </g>
    </g>
    <g id="xtick_22">
     <g id="line2d_85">
      <path clip-path="url(#p4f5e1b1253)" d="M 1235.455744 664.2 
L 1235.455744 386.373913 
" style="fill:none;stroke:#b0b0b0;stroke-linecap:square;stroke-width:0.8;"/>
     </g>
     <g id="line2d_86">
      <g>
       <use style="stroke:#000000;stroke-width:0.8;" x="1235.455744" xlink:href="#m15a8d90342" y="664.2"/>
      </g>
     </g>
     <g id="text_46">
      <!-- $0.15$ -->
      <g transform="translate(1217.397197 686.420693)scale(0.22 -0.22)">
       <use transform="scale(0.996264)" xlink:href="#CMR17-48"/>
       <use transform="translate(45.690477 0)scale(0.996264)" xlink:href="#CMMI12-58"/>
       <use transform="translate(72.787654 0)scale(0.996264)" xlink:href="#CMR17-49"/>
       <use transform="translate(118.478131 0)scale(0.996264)" xlink:href="#CMR17-53"/>
      </g>
     </g>
    </g>
    <g id="xtick_23">
     <g id="line2d_87">
      <path clip-path="url(#p4f5e1b1253)" d="M 1373.727073 664.2 
L 1373.727073 386.373913 
" style="fill:none;stroke:#b0b0b0;stroke-linecap:square;stroke-width:0.8;"/>
     </g>
     <g id="line2d_88">
      <g>
       <use style="stroke:#000000;stroke-width:0.8;" x="1373.727073" xlink:href="#m15a8d90342" y="664.2"/>
      </g>
     </g>
     <g id="text_47">
      <!-- $0.20$ -->
      <g transform="translate(1355.668526 686.420693)scale(0.22 -0.22)">
       <use transform="scale(0.996264)" xlink:href="#CMR17-48"/>
       <use transform="translate(45.690477 0)scale(0.996264)" xlink:href="#CMMI12-58"/>
       <use transform="translate(72.787654 0)scale(0.996264)" xlink:href="#CMR17-50"/>
       <use transform="translate(118.478131 0)scale(0.996264)" xlink:href="#CMR17-48"/>
      </g>
     </g>
    </g>
    <g id="text_48">
     <!-- M[a.u.] -->
     <g transform="translate(1070.586453 711.102505)scale(0.22 -0.22)">
      <use transform="scale(0.996264)" xlink:href="#CMSS17-77"/>
      <use transform="translate(81.67603 0)scale(0.996264)" xlink:href="#CMSS17-91"/>
      <use transform="translate(108.861469 0)scale(0.996264)" xlink:href="#CMSS17-97"/>
      <use transform="translate(153.783389 0)scale(0.996264)" xlink:href="#CMSS17-46"/>
      <use transform="translate(179.807594 0)scale(0.996264)" xlink:href="#CMSS17-117"/>
      <use transform="translate(228.012537 0)scale(0.996264)" xlink:href="#CMSS17-46"/>
      <use transform="translate(254.036742 0)scale(0.996264)" xlink:href="#CMSS17-93"/>
     </g>
    </g>
   </g>
   <g id="matplotlib.axis_8">
    <g id="ytick_16">
     <g id="line2d_89">
      <path clip-path="url(#p4f5e1b1253)" d="M 820.641758 664.2 
L 1382.4 664.2 
" style="fill:none;stroke:#b0b0b0;stroke-linecap:square;stroke-width:0.8;"/>
     </g>
     <g id="line2d_90">
      <g>
       <use style="stroke:#000000;stroke-width:0.8;" x="820.641758" xlink:href="#m8f284e0244" y="664.2"/>
      </g>
     </g>
     <g id="text_49">
      <!-- $0.0$ -->
      <g transform="translate(787.576569 671.810347)scale(0.22 -0.22)">
       <use transform="scale(0.996264)" xlink:href="#CMR17-48"/>
       <use transform="translate(45.690477 0)scale(0.996264)" xlink:href="#CMMI12-58"/>
       <use transform="translate(72.787654 0)scale(0.996264)" xlink:href="#CMR17-48"/>
      </g>
     </g>
    </g>
    <g id="ytick_17">
     <g id="line2d_91">
      <path clip-path="url(#p4f5e1b1253)" d="M 820.641758 603.898359 
L 1382.4 603.898359 
" style="fill:none;stroke:#b0b0b0;stroke-linecap:square;stroke-width:0.8;"/>
     </g>
     <g id="line2d_92">
      <g>
       <use style="stroke:#000000;stroke-width:0.8;" x="820.641758" xlink:href="#m8f284e0244" y="603.898359"/>
      </g>
     </g>
     <g id="text_50">
      <!-- $0.1$ -->
      <g transform="translate(787.576569 611.508706)scale(0.22 -0.22)">
       <use transform="scale(0.996264)" xlink:href="#CMR17-48"/>
       <use transform="translate(45.690477 0)scale(0.996264)" xlink:href="#CMMI12-58"/>
       <use transform="translate(72.787654 0)scale(0.996264)" xlink:href="#CMR17-49"/>
      </g>
     </g>
    </g>
    <g id="ytick_18">
     <g id="line2d_93">
      <path clip-path="url(#p4f5e1b1253)" d="M 820.641758 543.596718 
L 1382.4 543.596718 
" style="fill:none;stroke:#b0b0b0;stroke-linecap:square;stroke-width:0.8;"/>
     </g>
     <g id="line2d_94">
      <g>
       <use style="stroke:#000000;stroke-width:0.8;" x="820.641758" xlink:href="#m8f284e0244" y="543.596718"/>
      </g>
     </g>
     <g id="text_51">
      <!-- $0.2$ -->
      <g transform="translate(787.576569 551.207065)scale(0.22 -0.22)">
       <use transform="scale(0.996264)" xlink:href="#CMR17-48"/>
       <use transform="translate(45.690477 0)scale(0.996264)" xlink:href="#CMMI12-58"/>
       <use transform="translate(72.787654 0)scale(0.996264)" xlink:href="#CMR17-50"/>
      </g>
     </g>
    </g>
    <g id="ytick_19">
     <g id="line2d_95">
      <path clip-path="url(#p4f5e1b1253)" d="M 820.641758 483.295078 
L 1382.4 483.295078 
" style="fill:none;stroke:#b0b0b0;stroke-linecap:square;stroke-width:0.8;"/>
     </g>
     <g id="line2d_96">
      <g>
       <use style="stroke:#000000;stroke-width:0.8;" x="820.641758" xlink:href="#m8f284e0244" y="483.295078"/>
      </g>
     </g>
     <g id="text_52">
      <!-- $0.3$ -->
      <g transform="translate(787.576569 490.905424)scale(0.22 -0.22)">
       <use transform="scale(0.996264)" xlink:href="#CMR17-48"/>
       <use transform="translate(45.690477 0)scale(0.996264)" xlink:href="#CMMI12-58"/>
       <use transform="translate(72.787654 0)scale(0.996264)" xlink:href="#CMR17-51"/>
      </g>
     </g>
    </g>
    <g id="ytick_20">
     <g id="line2d_97">
      <path clip-path="url(#p4f5e1b1253)" d="M 820.641758 422.993437 
L 1382.4 422.993437 
" style="fill:none;stroke:#b0b0b0;stroke-linecap:square;stroke-width:0.8;"/>
     </g>
     <g id="line2d_98">
      <g>
       <use style="stroke:#000000;stroke-width:0.8;" x="820.641758" xlink:href="#m8f284e0244" y="422.993437"/>
      </g>
     </g>
     <g id="text_53">
      <!-- $0.4$ -->
      <g transform="translate(787.576569 430.603783)scale(0.22 -0.22)">
       <use transform="scale(0.996264)" xlink:href="#CMR17-48"/>
       <use transform="translate(45.690477 0)scale(0.996264)" xlink:href="#CMMI12-58"/>
       <use transform="translate(72.787654 0)scale(0.996264)" xlink:href="#CMR17-52"/>
      </g>
     </g>
    </g>
    <g id="text_54">
     <!-- P[a.u.] -->
     <g transform="translate(778.115451 553.807933)rotate(-90)scale(0.22 -0.22)">
      <use transform="scale(0.996264)" xlink:href="#CMSS17-80"/>
      <use transform="translate(59.735586 0)scale(0.996264)" xlink:href="#CMSS17-91"/>
      <use transform="translate(86.921025 0)scale(0.996264)" xlink:href="#CMSS17-97"/>
      <use transform="translate(131.842946 0)scale(0.996264)" xlink:href="#CMSS17-46"/>
      <use transform="translate(157.86715 0)scale(0.996264)" xlink:href="#CMSS17-117"/>
      <use transform="translate(206.072094 0)scale(0.996264)" xlink:href="#CMSS17-46"/>
      <use transform="translate(232.096298 0)scale(0.996264)" xlink:href="#CMSS17-93"/>
     </g>
    </g>
   </g>
   <g id="line2d_99">
    <g clip-path="url(#p4f5e1b1253)">
     <use style="fill:#ff0000;fill-opacity:0.75;stroke:#000000;stroke-linejoin:miter;stroke-opacity:0.75;stroke-width:2.5;" x="1331.331069" xlink:href="#m27b6c25d15" y="411.63083"/>
    </g>
   </g>
   <g id="line2d_100">
    <g clip-path="url(#p4f5e1b1253)">
     <use style="fill:#008000;fill-opacity:0.75;stroke:#000000;stroke-linejoin:miter;stroke-opacity:0.75;stroke-width:2.5;" x="1239.862753" xlink:href="#m8bfb35d6be" y="494.82303"/>
    </g>
   </g>
   <g id="line2d_101">
    <g clip-path="url(#p4f5e1b1253)">
     <use style="fill:#0000ff;fill-opacity:0.75;stroke:#000000;stroke-linejoin:miter;stroke-opacity:0.75;stroke-width:2.5;" x="979.40464" xlink:href="#m343dbb4926" y="534.503376"/>
    </g>
   </g>
   <g id="line2d_102">
    <g clip-path="url(#p4f5e1b1253)">
     <use style="fill:#00bfbf;fill-opacity:0.75;stroke:#000000;stroke-linejoin:miter;stroke-opacity:0.75;stroke-width:2.5;" x="865.671176" xlink:href="#m41ab2501b8" y="587.816943"/>
    </g>
   </g>
   <g id="patch_18">
    <path d="M 820.641758 664.2 
L 820.641758 386.373913 
" style="fill:none;stroke:#000000;stroke-linecap:square;stroke-linejoin:miter;stroke-width:0.8;"/>
   </g>
   <g id="patch_19">
    <path d="M 1382.4 664.2 
L 1382.4 386.373913 
" style="fill:none;stroke:#000000;stroke-linecap:square;stroke-linejoin:miter;stroke-width:0.8;"/>
   </g>
   <g id="patch_20">
    <path d="M 820.641758 664.2 
L 1382.4 664.2 
" style="fill:none;stroke:#000000;stroke-linecap:square;stroke-linejoin:miter;stroke-width:0.8;"/>
   </g>
   <g id="patch_21">
    <path d="M 820.641758 386.373913 
L 1382.4 386.373913 
" style="fill:none;stroke:#000000;stroke-linecap:square;stroke-linejoin:miter;stroke-width:0.8;"/>
   </g>
   <g id="text_55">
    <!-- PyrBnz 2HCOOH -->
    <defs>
     <path d="M 41.796875 43 
L 34 43 
C 25.5 20.21875 22.59375 10.96875 22.40625 5.984375 
L 22.296875 5.984375 
C 22 10.875 17.59375 22.8125 14.09375 31.359375 
L 9.40625 43 
L 1.296875 43 
L 19 0.203125 
C 17.90625 -2.78125 16.296875 -7.265625 15.796875 -8.265625 
C 13.59375 -13.828125 12.09375 -13.828125 10.5 -13.828125 
C 10.09375 -13.828125 6.90625 -13.828125 3.296875 -12.640625 
L 3.90625 -19.203125 
C 6.40625 -19.703125 8.90625 -20 10.703125 -20 
C 13.203125 -20 18.203125 -20 22.796875 -7.765625 
z
" id="CMSS17-121"/>
     <path d="M 8.90625 69 
L 8.90625 0 
L 33.796875 0 
C 47.40625 0 57.296875 8.96875 57.296875 18.75 
C 57.296875 26.328125 50.796875 34 39.09375 36.203125 
C 52.09375 39.96875 54.703125 47.5 54.703125 51.765625 
C 54.703125 60.671875 44.90625 69 31.203125 69 
z
M 17 39 
L 17 63.421875 
L 28.5 63.421875 
C 38.796875 63.421875 46.90625 58.1875 46.90625 51.65625 
C 46.90625 45.71875 40.5 39 27.59375 39 
z
M 17 5.578125 
L 17 32.921875 
L 30.296875 32.921875 
C 41.09375 32.921875 49.40625 26.234375 49.40625 18.84375 
C 49.40625 12.0625 42.09375 5.578125 31 5.578125 
z
" id="CMSS17-66"/>
     <path d="M 40.90625 29.328125 
C 40.90625 35.671875 39.40625 44 28.09375 44 
C 21.703125 44 17.5 40.71875 14.703125 37.328125 
L 14.703125 43.09375 
L 7.40625 43.09375 
L 7.40625 0 
L 15 0 
L 15 24.359375 
C 15 30.6875 17.40625 37.9375 24.203125 37.9375 
C 33 37.9375 33.296875 32 33.296875 28.578125 
L 33.296875 0 
L 40.90625 0 
z
" id="CMSS17-110"/>
     <path d="M 37.5 39.09375 
L 37.5 42.96875 
L 3.90625 42.96875 
L 3.90625 37 
L 16.703125 37 
C 17.90625 37 19.09375 37 20.296875 37 
L 27.296875 37 
L 2.59375 4.078125 
L 2.59375 0 
L 37.796875 0 
L 37.796875 6.171875 
L 24.203125 6.171875 
C 23 6.171875 21.796875 6.171875 20.59375 6.171875 
L 12.90625 6.171875 
z
" id="CMSS17-122"/>
     <path d="M 54.703125 11.15625 
C 48 6.671875 44.90625 5.375 36.796875 5.375 
C 22.796875 5.375 14.59375 20.359375 14.59375 34.046875 
C 14.59375 48.625 23 63 37.203125 63 
C 43.59375 63 47.796875 61.21875 52.90625 58.046875 
L 54.296875 65.890625 
C 49.5 68.28125 43.40625 69.375 37.296875 69.375 
C 18.09375 69.375 6.203125 51.8125 6.203125 34.046875 
C 6.203125 14.484375 20.296875 -1 36.296875 -1 
C 44.90625 -1 47.90625 -0.296875 55.296875 4.375 
z
" id="CMSS17-67"/>
    </defs>
    <g transform="translate(1025.184612 380.373913)scale(0.22 -0.22)">
     <use transform="scale(0.996264)" xlink:href="#CMSS17-80"/>
     <use transform="translate(59.735586 0)scale(0.996264)" xlink:href="#CMSS17-121"/>
     <use transform="translate(102.735728 0)scale(0.996264)" xlink:href="#CMSS17-114"/>
     <use transform="translate(134.645501 0)scale(0.996264)" xlink:href="#CMSS17-66"/>
     <use transform="translate(196.983541 0)scale(0.996264)" xlink:href="#CMSS17-110"/>
     <use transform="translate(245.188484 0)scale(0.996264)" xlink:href="#CMSS17-122"/>
     <use transform="translate(317.095468 0)scale(0.996264)" xlink:href="#CMSS17-50"/>
     <use transform="translate(363.939092 0)scale(0.996264)" xlink:href="#CMSS17-72"/>
     <use transform="translate(430.000611 0)scale(0.996264)" xlink:href="#CMSS17-67"/>
     <use transform="translate(489.856383 0)scale(0.996264)" xlink:href="#CMSS17-79"/>
     <use transform="translate(558.880638 0)scale(0.996264)" xlink:href="#CMSS17-79"/>
     <use transform="translate(627.904893 0)scale(0.996264)" xlink:href="#CMSS17-72"/>
    </g>
   </g>
  </g>
 </g>
 <defs>
  <clipPath id="p868e7e4a50">
   <rect height="277.826087" width="561.758242" x="104.4" y="25.2"/>
  </clipPath>
  <clipPath id="p7e6597bbcc">
   <rect height="277.826087" width="561.758242" x="820.641758" y="25.2"/>
  </clipPath>
  <clipPath id="pa503132fc8">
   <rect height="277.826087" width="561.758242" x="104.4" y="386.373913"/>
  </clipPath>
  <clipPath id="p4f5e1b1253">
   <rect height="277.826087" width="561.758242" x="820.641758" y="386.373913"/>
  </clipPath>
 </defs>
</svg>
